<svg width="30" height="30" viewBox="0 0 30 30" fill="none" xmlns="http://www.w3.org/2000/svg">
<path d="M5.4375 24C5.4375 24.4125 5.775 24.75 6.1875 24.75H22.6875C23.1 24.75 23.4375 24.4125 23.4375 24V7.125C23.4375 6.7125 23.1 6.375 22.6875 6.375H6.1875C5.775 6.375 5.4375 6.7125 5.4375 7.125V24Z" fill="#F7E6A3"/>
<path d="M6.1875 25.125H22.6875C23.325 25.125 23.8125 24.6375 23.8125 24V7.125C23.8125 6.4875 23.325 6 22.6875 6H6.1875C5.55 6 5.0625 6.4875 5.0625 7.125V24C5.0625 24.6375 5.55 25.125 6.1875 25.125ZM22.6875 6.75C22.9125 6.75 23.0625 6.9 23.0625 7.125V24C23.0625 24.225 22.9125 24.375 22.6875 24.375H6.1875C5.9625 24.375 5.8125 24.225 5.8125 24V7.125C5.8125 6.9 5.9625 6.75 6.1875 6.75H22.6875Z" fill="#231C1C"/>
<path d="M25.6875 15C25.6875 15.2955 25.6293 15.5881 25.5162 15.861C25.4032 16.134 25.2374 16.3821 25.0285 16.591C24.8196 16.7999 24.5715 16.9657 24.2985 17.0787C24.0256 17.1918 23.733 17.25 23.4375 17.25C23.142 17.25 22.8494 17.1918 22.5765 17.0787C22.3035 16.9657 22.0554 16.7999 21.8465 16.591C21.6376 16.3821 21.4718 16.134 21.3588 15.861C21.2457 15.5881 21.1875 15.2955 21.1875 15C21.1875 14.7045 21.2457 14.4119 21.3588 14.139C21.4718 13.866 21.6376 13.6179 21.8465 13.409C22.0554 13.2001 22.3035 13.0343 22.5765 12.9213C22.8494 12.8082 23.142 12.75 23.4375 12.75C23.733 12.75 24.0256 12.8082 24.2985 12.9213C24.5715 13.0343 24.8196 13.2001 25.0285 13.409C25.2374 13.6179 25.4032 13.866 25.5162 14.139C25.6293 14.4119 25.6875 14.7045 25.6875 15Z" fill="#3AE410"/>
<path d="M23.4375 17.625C24.9 17.625 26.0625 16.4625 26.0625 15C26.0625 13.5375 24.9 12.375 23.4375 12.375C21.975 12.375 20.8125 13.5375 20.8125 15C20.8125 16.4625 21.975 17.625 23.4375 17.625ZM23.4375 13.125C24.4875 13.125 25.3125 13.95 25.3125 15C25.3125 16.05 24.4875 16.875 23.4375 16.875C22.3875 16.875 21.5625 16.05 21.5625 15C21.5625 13.95 22.3875 13.125 23.4375 13.125Z" fill="#231C1C"/>
<path d="M7.6875 15C7.6875 15.5967 7.45045 16.169 7.02849 16.591C6.60653 17.0129 6.03424 17.25 5.4375 17.25C4.84076 17.25 4.26847 17.0129 3.84651 16.591C3.42455 16.169 3.1875 15.5967 3.1875 15C3.1875 14.4033 3.42455 13.831 3.84651 13.409C4.26847 12.9871 4.84076 12.75 5.4375 12.75C6.03424 12.75 6.60653 12.9871 7.02849 13.409C7.45045 13.831 7.6875 14.4033 7.6875 15Z" fill="#3AE410"/>
<path d="M5.4375 17.625C6.9 17.625 8.0625 16.4625 8.0625 15C8.0625 13.5375 6.9 12.375 5.4375 12.375C3.975 12.375 2.8125 13.5375 2.8125 15C2.8125 16.4625 3.975 17.625 5.4375 17.625ZM5.4375 13.125C6.4875 13.125 7.3125 13.95 7.3125 15C7.3125 16.05 6.4875 16.875 5.4375 16.875C4.3875 16.875 3.5625 16.05 3.5625 15C3.5625 13.95 4.3875 13.125 5.4375 13.125Z" fill="#231C1C"/>
<path d="M7.6875 20.25C7.6875 20.6625 8.025 21 8.4375 21H20.4375C20.85 21 21.1875 20.6625 21.1875 20.25V10.5C21.1875 10.0875 20.85 9.75 20.4375 9.75H8.4375C8.025 9.75 7.6875 10.0875 7.6875 10.5V20.25Z" fill="#6FB0BE"/>
<path d="M8.4375 21.375H20.4375C21.075 21.375 21.5625 20.8875 21.5625 20.25V10.5C21.5625 9.8625 21.075 9.375 20.4375 9.375H8.4375C7.8 9.375 7.3125 9.8625 7.3125 10.5V20.25C7.3125 20.8875 7.8 21.375 8.4375 21.375ZM20.4375 10.125C20.6625 10.125 20.8125 10.275 20.8125 10.5V20.25C20.8125 20.475 20.6625 20.625 20.4375 20.625H8.4375C8.2125 20.625 8.0625 20.475 8.0625 20.25V10.5C8.0625 10.275 8.2125 10.125 8.4375 10.125H20.4375Z" fill="#231C1C"/>
<path d="M16.6875 15C16.6875 15.5967 16.4504 16.169 16.0285 16.591C15.6065 17.0129 15.0342 17.25 14.4375 17.25C13.8408 17.25 13.2685 17.0129 12.8465 16.591C12.4246 16.169 12.1875 15.5967 12.1875 15C12.1875 14.4033 12.4246 13.831 12.8465 13.409C13.2685 12.9871 13.8408 12.75 14.4375 12.75C15.0342 12.75 15.6065 12.9871 16.0285 13.409C16.4504 13.831 16.6875 14.4033 16.6875 15Z" fill="#3AE410"/>
<path d="M14.4375 17.625C15.9 17.625 17.0625 16.4625 17.0625 15C17.0625 13.5375 15.9 12.375 14.4375 12.375C12.975 12.375 11.8125 13.5375 11.8125 15C11.8125 16.4625 12.975 17.625 14.4375 17.625ZM14.4375 13.125C15.4875 13.125 16.3125 13.95 16.3125 15C16.3125 16.05 15.4875 16.875 14.4375 16.875C13.3875 16.875 12.5625 16.05 12.5625 15C12.5625 13.95 13.3875 13.125 14.4375 13.125Z" fill="#231C1C"/>
<path d="M3.1875 15H25.6875L24.1875 8.25H4.6875L3.1875 15Z" fill="#E42710"/>
<path d="M3.18744 15.375H25.6874C25.7999 15.375 25.9124 15.3375 25.9874 15.225C26.0624 15.15 26.0999 15.0375 26.0624 14.925L24.5624 8.175C24.5249 7.9875 24.3749 7.875 24.1874 7.875H4.68744C4.49994 7.875 4.34994 7.9875 4.31244 8.175L2.81244 14.925C2.77494 15.0375 2.81244 15.15 2.88744 15.225C2.96244 15.3375 3.07494 15.375 3.18744 15.375ZM25.2374 14.625H3.67494L5.02494 8.625H23.8874L25.2374 14.625Z" fill="#231C1C"/>
<path d="M21.1875 15C21.1875 15.5967 20.9504 16.169 20.5285 16.591C20.1065 17.0129 19.5342 17.25 18.9375 17.25C18.3408 17.25 17.7685 17.0129 17.3465 16.591C16.9246 16.169 16.6875 15.5967 16.6875 15C16.6875 14.4033 16.9246 13.831 17.3465 13.409C17.7685 12.9871 18.3408 12.75 18.9375 12.75C19.5342 12.75 20.1065 12.9871 20.5285 13.409C20.9504 13.831 21.1875 14.4033 21.1875 15Z" fill="#FAF1C7"/>
<path d="M18.9375 17.625C20.4 17.625 21.5625 16.4625 21.5625 15C21.5625 13.5375 20.4 12.375 18.9375 12.375C17.475 12.375 16.3125 13.5375 16.3125 15C16.3125 16.4625 17.475 17.625 18.9375 17.625ZM18.9375 13.125C19.9875 13.125 20.8125 13.95 20.8125 15C20.8125 16.05 19.9875 16.875 18.9375 16.875C17.8875 16.875 17.0625 16.05 17.0625 15C17.0625 13.95 17.8875 13.125 18.9375 13.125Z" fill="#231C1C"/>
<path d="M12.1875 15C12.1875 15.5967 11.9504 16.169 11.5285 16.591C11.1065 17.0129 10.5342 17.25 9.9375 17.25C9.34076 17.25 8.76847 17.0129 8.34651 16.591C7.92455 16.169 7.6875 15.5967 7.6875 15C7.6875 14.4033 7.92455 13.831 8.34651 13.409C8.76847 12.9871 9.34076 12.75 9.9375 12.75C10.5342 12.75 11.1065 12.9871 11.5285 13.409C11.9504 13.831 12.1875 14.4033 12.1875 15Z" fill="#FAF1C7"/>
<path d="M9.9375 17.625C11.4 17.625 12.5625 16.4625 12.5625 15C12.5625 13.5375 11.4 12.375 9.9375 12.375C8.475 12.375 7.3125 13.5375 7.3125 15C7.3125 16.4625 8.475 17.625 9.9375 17.625ZM9.9375 13.125C10.9875 13.125 11.8125 13.95 11.8125 15C11.8125 16.05 10.9875 16.875 9.9375 16.875C8.8875 16.875 8.0625 16.05 8.0625 15C8.0625 13.95 8.8875 13.125 9.9375 13.125Z" fill="#231C1C"/>
<path d="M16.6875 15H21.1875L20.4375 8.25H16.3125L16.6875 15Z" fill="#FAF1C7"/>
<path d="M16.6878 15.375H21.1878C21.3003 15.375 21.4128 15.3375 21.4503 15.2625C21.5253 15.1875 21.5628 15.075 21.5253 14.9625L20.7753 8.2125C20.7378 8.025 20.5878 7.875 20.4003 7.875H16.2753C16.1628 7.875 16.0878 7.9125 16.0128 7.9875C15.9378 8.0625 15.9003 8.175 15.9003 8.25L16.2753 15C16.3128 15.225 16.5003 15.375 16.6878 15.375ZM20.7753 14.625H17.0628L16.7253 8.625H20.1003L20.7753 14.625Z" fill="#231C1C"/>
<path d="M7.6875 15H12.1875L12.5625 8.25H8.4375L7.6875 15Z" fill="#FAF1C7"/>
<path d="M7.6875 15.375H12.1875C12.375 15.375 12.5625 15.225 12.5625 15.0375L12.9375 8.2875C12.9375 8.175 12.9 8.1 12.825 8.025C12.75 7.95 12.6375 7.9125 12.5625 7.9125H8.4375C8.25 7.9125 8.1 8.0625 8.0625 8.25L7.3125 15C7.3125 15.1125 7.35 15.225 7.3875 15.3C7.425 15.375 7.575 15.375 7.6875 15.375ZM11.85 14.625H8.1375L8.8125 8.625H12.1875L11.85 14.625Z" fill="#231C1C"/>
</svg>





